<svg xmlns="http://www.w3.org/2000/svg" width="32" height="32" viewBox="0 0 24 24" fill="none" stroke="#6366f1" stroke-width="2" stroke-linecap="round" stroke-linejoin="round"><path d="M12 10a2 2 0 0 0-2 2c0 1.02-.1 2.02-.3 3"/><path d="M14 22a10 10 0 0 0 8-10V9a4 4 0 0 0-8 0v3c0 1.02-.1 2.02-.3 3"/><path d="M18 22a2 2 0 0 0 2-2V9a6 6 0 0 0-12 0v3c0 1.02-.1 2.02-.3 3"/><path d="M22 12c0-6.627-5.373-12-12-12S2 5.373 2 12v3c0 1.02-.1 2.02-.3 3"/><path d="M2 12a10 10 0 0 1 5-8.66"/><path d="M7 22a2 2 0 0 0 2-2V7a8 8 0 0 0-5 5"/></svg>
